<?xml version="1.0" standalone="no"?>
<!DOCTYPE svg PUBLIC "-//W3C//DTD SVG 20010904//EN"
 "http://www.w3.org/TR/2001/REC-SVG-20010904/DTD/svg10.dtd">
<svg version="1.0" xmlns="http://www.w3.org/2000/svg"
 width="1156.000000pt" height="1156.000000pt" viewBox="0 0 1156.000000 1156.000000"
 preserveAspectRatio="xMidYMid meet">
<metadata>
Created by potrace 1.14, written by Peter Selinger 2001-2017
</metadata>
<g transform="translate(0.000000,1156.000000) scale(0.100000,-0.100000)"
fill="#000000" stroke="none">
<path d="M1174 10743 c-214 -322 -390 -589 -392 -593 -2 -6 58 -88 241 -324
12 -15 84 -110 160 -210 76 -99 143 -188 150 -196 15 -18 169 -231 259 -355
75 -104 238 -344 238 -350 0 -2 11 -21 25 -41 l25 -37 -42 -76 c-22 -42 -51
-94 -63 -116 -320 -580 -455 -838 -704 -1340 -152 -306 -214 -435 -265 -548
-13 -29 -37 -81 -53 -117 -321 -695 -572 -1376 -668 -1810 -29 -128 -36 -170
-60 -346 -29 -208 -27 -598 4 -812 11 -72 17 -104 47 -237 62 -273 184 -586
323 -830 22 -38 44 -77 47 -85 16 -34 168 -251 231 -330 75 -94 288 -312 372
-381 55 -46 222 -166 288 -208 175 -112 528 -257 696 -287 17 -2 33 -7 37 -9
3 -2 29 -7 56 -11 27 -3 52 -8 55 -10 8 -5 49 -11 149 -22 175 -21 486 -19
640 4 449 66 825 223 1160 482 326 253 601 596 804 1001 77 152 191 448 211
545 3 10 11 42 19 70 24 88 64 291 71 370 2 17 7 58 11 91 15 113 8 500 -11
639 -2 17 -7 58 -10 91 -4 32 -8 62 -10 65 -2 3 -6 24 -8 45 -3 22 -12 70 -21
106 -8 37 -17 78 -20 90 -10 47 -14 65 -27 109 -7 25 -13 50 -15 55 -49 226
-329 980 -518 1397 -13 29 -57 127 -99 218 -196 435 -509 1058 -799 1595 -36
66 -84 155 -107 197 l-42 77 22 43 c67 131 198 298 332 423 257 240 548 383
912 449 307 56 707 -5 1010 -154 86 -43 280 -160 295 -179 3 -3 36 -33 75 -66
248 -213 424 -479 519 -785 19 -63 37 -126 40 -140 2 -14 7 -36 10 -50 26
-117 38 -351 23 -485 -26 -246 -103 -488 -218 -689 -126 -220 -289 -398 -517
-565 -73 -54 -73 -54 -54 -75 10 -11 115 -133 233 -271 117 -137 223 -261 235
-275 12 -14 53 -61 91 -105 38 -44 78 -91 90 -105 12 -14 31 -36 43 -50 12
-14 41 -47 65 -75 24 -27 90 -104 146 -170 56 -66 112 -130 124 -143 l23 -23
101 78 c114 90 250 173 366 225 77 34 185 75 222 83 10 2 43 11 73 19 77 22
132 30 283 44 433 39 883 -106 1226 -393 185 -156 324 -329 434 -541 72 -139
145 -361 163 -492 3 -26 8 -56 11 -67 9 -39 12 -341 3 -405 -5 -36 -11 -83
-14 -105 -3 -22 -17 -83 -31 -135 -14 -52 -27 -99 -28 -105 -13 -53 -89 -223
-140 -311 -106 -186 -214 -318 -367 -452 -267 -233 -600 -377 -965 -417 -27
-3 -102 -5 -165 -5 -166 1 -2853 2 -2867 1 -10 -1 -13 -169 -13 -805 l0 -804
1593 2 c875 2 1603 5 1617 9 14 3 49 8 78 11 87 10 298 48 392 71 482 119 946
355 1337 683 122 102 333 311 410 407 26 33 56 68 65 79 80 89 257 363 348
541 119 231 248 581 285 777 3 12 13 65 24 117 11 53 23 125 27 161 3 36 8 67
10 70 8 16 19 227 19 395 0 191 -8 325 -25 445 -13 85 -36 215 -46 260 -3 14
-8 36 -10 50 -3 14 -19 75 -36 135 -295 1061 -1099 1910 -2143 2264 -131 44
-370 106 -450 117 -27 3 -53 8 -56 10 -3 1 -28 6 -55 9 -27 4 -60 8 -74 11
-14 2 -56 7 -95 10 -38 3 -86 7 -105 9 -19 2 -52 4 -72 4 -33 1 -36 4 -32 24
2 12 9 54 15 92 6 39 12 81 14 95 3 14 7 56 11 95 3 38 8 81 10 95 5 30 5 405
0 470 -13 155 -19 204 -32 285 -8 50 -17 104 -20 120 -18 109 -80 338 -129
475 -114 321 -255 586 -461 866 -262 357 -590 655 -974 886 -145 88 -411 217
-500 243 -14 4 -29 11 -35 15 -30 22 -435 137 -545 154 -251 40 -261 41 -405
51 -95 6 -411 7 -441 1 -11 -2 -56 -7 -100 -10 -43 -3 -88 -8 -99 -10 -11 -2
-40 -7 -65 -10 -50 -7 -192 -32 -227 -41 -13 -3 -32 -7 -43 -10 -11 -3 -29 -7
-40 -10 -11 -3 -29 -7 -39 -9 -230 -51 -652 -226 -849 -352 -29 -19 -55 -34
-58 -34 -7 0 -146 -94 -232 -158 -109 -80 -246 -196 -343 -289 -47 -46 -88
-83 -91 -83 -3 0 -36 44 -74 98 -38 53 -72 102 -77 107 -4 6 -73 98 -154 205
-166 220 -627 827 -645 850 -7 8 -47 65 -89 127 l-76 112 -389 -586z m1619
-3830 c451 -918 719 -1543 895 -2093 27 -85 67 -222 77 -268 11 -49 35 -161
40 -187 9 -52 19 -206 19 -310 1 -629 -325 -1259 -773 -1492 -256 -134 -478
-149 -736 -50 -68 26 -219 107 -235 126 -3 3 -27 24 -55 46 -67 54 -126 115
-198 205 -102 128 -138 189 -247 425 -30 65 -97 297 -114 395 -3 19 -8 45 -10
57 -13 66 -20 174 -20 298 1 131 10 291 18 304 2 3 7 24 10 46 43 278 269 911
546 1530 138 309 218 480 362 775 159 327 252 510 259 510 3 0 76 -143 162
-317z"/>
</g>
</svg>
